<svg width="174" height="174" viewBox="0 0 174 174" fill="none" xmlns="http://www.w3.org/2000/svg">
<path d="M143.493 20.837C130.407 9.66376 114.302 2.6218 97.214 0.601658C80.1261 -1.41849 62.8228 1.67391 47.4923 9.48779C32.1618 17.3017 19.4927 29.4861 11.0871 44.5002C2.68143 59.5144 -1.08325 76.684 0.269118 93.8377C1.62149 110.991 8.03017 127.359 18.6847 140.87C29.3393 154.382 43.7612 164.431 60.1267 169.746C76.4923 175.061 94.0664 175.403 110.627 170.73C127.187 166.057 141.99 156.579 153.163 143.493L145.044 136.561C135.242 148.041 122.256 156.356 107.727 160.456C93.1992 164.555 77.7817 164.254 63.4244 159.592C49.0672 154.929 36.415 146.113 27.0679 134.26C17.7208 122.406 12.0985 108.047 10.9121 92.9986C9.72571 77.9499 13.0284 62.8872 20.4026 49.7155C27.7768 36.5438 38.8912 25.8546 52.3404 18.9995C65.7896 12.1445 80.9696 9.43161 95.9606 11.2039C110.952 12.9761 125.081 19.1539 136.561 28.9561L143.493 20.837Z" fill="#2D6C8D"/>
<path d="M158.826 79.1473C159.905 89.0156 158.939 99.0002 155.988 108.479C153.037 117.957 148.165 126.725 141.675 134.237C135.185 141.749 127.217 147.843 118.267 152.139C109.318 156.434 99.5793 158.84 89.659 159.205C79.7388 159.571 69.8496 157.888 60.6085 154.262C51.3674 150.636 42.9725 145.145 35.9477 138.131C28.9229 131.117 23.4187 122.73 19.7786 113.495C16.1385 104.259 14.4406 94.3725 14.7907 84.4516L20.1139 84.6395C19.7895 93.829 21.3623 102.987 24.7341 111.541C28.1058 120.096 33.2042 127.864 39.7112 134.361C46.2182 140.858 53.9941 145.945 62.554 149.303C71.1139 152.662 80.274 154.221 89.463 153.882C98.652 153.544 107.673 151.316 115.962 147.337C124.252 143.358 131.633 137.713 137.644 130.755C143.656 123.797 148.169 115.675 150.902 106.895C153.636 98.1156 154.531 88.867 153.531 79.7262L158.826 79.1473Z" fill="#CCCDC7"/>
<g filter="url(#filter0_d_95_24)">
<path d="M147.7 146.547C147.7 148.631 145.595 149.672 141.387 149.672H80.637C81.6787 141.339 88.1787 128.735 100.137 111.86C113.929 93.0267 121.325 82.7558 122.325 81.0475C123.366 79.3392 124.054 78.0892 124.387 77.2975C124.97 76.0475 125.262 74.7767 125.262 73.485C125.262 72.1933 124.97 70.985 124.387 69.86C123.845 68.6933 123.012 67.7142 121.887 66.9225C119.429 65.1725 115.929 64.2975 111.387 64.2975C107.095 64.2975 103.387 64.9642 100.262 66.2975C94.9703 68.5892 91.5745 70.985 90.0745 73.485C88.9495 75.235 87.6578 76.11 86.1995 76.11C84.7412 76.11 84.012 75.2142 84.012 73.4225C84.012 71.2142 86.012 68.7975 90.012 66.1725C96.3453 62.1308 103.866 60.11 112.575 60.11C123.2 60.11 131.72 62.3808 138.137 66.9225C144.262 71.2558 147.325 76.7975 147.325 83.5475C147.325 87.4225 146.783 90.6517 145.7 93.235C144.658 95.7767 143.637 97.9642 142.637 99.7975C141.637 101.631 140.429 103.672 139.012 105.922L127.012 123.86C121.262 132.318 117.241 139.422 114.95 145.172H133.262C135.595 145.172 137.762 144.985 139.762 144.61C142.22 144.152 143.908 143.922 144.825 143.922C145.783 143.922 146.491 144.214 146.95 144.797C147.45 145.339 147.7 145.922 147.7 146.547Z" fill="#2CA8B6"/>
</g>
<defs>
<filter id="filter0_d_95_24" x="76.637" y="60.11" width="75.0625" height="97.5625" filterUnits="userSpaceOnUse" color-interpolation-filters="sRGB">
<feFlood flood-opacity="0" result="BackgroundImageFix"/>
<feColorMatrix in="SourceAlpha" type="matrix" values="0 0 0 0 0 0 0 0 0 0 0 0 0 0 0 0 0 0 127 0" result="hardAlpha"/>
<feOffset dy="4"/>
<feGaussianBlur stdDeviation="2"/>
<feComposite in2="hardAlpha" operator="out"/>
<feColorMatrix type="matrix" values="0 0 0 0 0 0 0 0 0 0 0 0 0 0 0 0 0 0 0.25 0"/>
<feBlend mode="normal" in2="BackgroundImageFix" result="effect1_dropShadow_95_24"/>
<feBlend mode="normal" in="SourceGraphic" in2="effect1_dropShadow_95_24" result="shape"/>
</filter>
</defs>
</svg>
